HIERARCHY
ROOT Hips
{
	OFFSET -0.001795 -0.223333 0.028219
	CHANNELS 6 Xposition Yposition Zposition Zrotation Yrotation Xrotation 
	JOINT LeftUpLeg
	{
		OFFSET 0.069520 -0.091406 -0.006815
		CHANNELS 3 Zrotation Yrotation Xrotation
		JOINT LeftLeg
		{
			OFFSET 0.034277 -0.375199 -0.004496
			CHANNELS 3 Zrotation Yrotation Xrotation
			JOINT LeftFoot
			{
				OFFSET -0.013596 -0.397961 -0.043693
				CHANNELS 3 Zrotation Yrotation Xrotation
				JOINT LeftToe
				{
					OFFSET 0.026358 -0.055791 0.119288
					CHANNELS 3 Zrotation Yrotation Xrotation
					End Site
					{
						OFFSET 0.000000 0.000000 0.000000
					}
				}
			}
		}
	}
	JOINT RightUpLeg
	{
		OFFSET -0.067670 -0.090522 -0.004320
		CHANNELS 3 Zrotation Yrotation Xrotation
		JOINT RightLeg
		{
			OFFSET -0.038290 -0.382569 -0.008850
			CHANNELS 3 Zrotation Yrotation Xrotation
			JOINT RightFoot
			{
				OFFSET 0.015774 -0.398415 -0.042312
				CHANNELS 3 Zrotation Yrotation Xrotation
				JOINT RightToe
				{
					OFFSET -0.025372 -0.048144 0.123348
					CHANNELS 3 Zrotation Yrotation Xrotation
					End Site
					{
						OFFSET 0.000000 0.000000 0.000000
					}
				}
			}
		}
	}
	JOINT Spine
	{
		OFFSET -0.002533 0.108963 -0.026696
		CHANNELS 3 Zrotation Yrotation Xrotation
		JOINT Spine1
		{
			OFFSET 0.005487 0.135180 0.001092
			CHANNELS 3 Zrotation Yrotation Xrotation
			JOINT Spine2
			{
				OFFSET 0.001457 0.052922 0.025425
				CHANNELS 3 Zrotation Yrotation Xrotation
				JOINT Neck
				{
					OFFSET -0.002778 0.213870 -0.042857
					CHANNELS 3 Zrotation Yrotation Xrotation
					JOINT Head
					{
						OFFSET 0.005152 0.064970 0.051349
						CHANNELS 3 Zrotation Yrotation Xrotation
						End Site
						{
							OFFSET 0.000000 0.000000 0.000000
						}
					}
				}
				JOINT LeftShoulder
				{
					OFFSET 0.078845 0.121749 -0.034090
					CHANNELS 3 Zrotation Yrotation Xrotation
					JOINT LeftArm
					{
						OFFSET 0.090977 0.030469 -0.008868
						CHANNELS 3 Zrotation Yrotation Xrotation
						JOINT LeftForeArm
						{
							OFFSET 0.259612 -0.012772 -0.027456
							CHANNELS 3 Zrotation Yrotation Xrotation
							JOINT LeftHand
							{
								OFFSET 0.249234 0.008986 -0.001171
								CHANNELS 3 Zrotation Yrotation Xrotation
								End Site
								{
									OFFSET 0.000000 0.000000 0.000000
								}
							}
						}
					}
				}
				JOINT RightShoulder
				{
					OFFSET -0.081759 0.118833 -0.038615
					CHANNELS 3 Zrotation Yrotation Xrotation
					JOINT RightArm
					{
						OFFSET -0.096012 0.032551 -0.009143
						CHANNELS 3 Zrotation Yrotation Xrotation
						JOINT RightForeArm
						{
							OFFSET -0.253742 -0.013329 -0.021401
							CHANNELS 3 Zrotation Yrotation Xrotation
							JOINT RightHand
							{
								OFFSET -0.255298 0.007772 -0.005559
								CHANNELS 3 Zrotation Yrotation Xrotation
								End Site
								{
									OFFSET 0.000000 0.000000 0.000000
								}
							}
						}
					}
				}
			}
		}
	}
}
MOTION
Frames: 15
Frame Time: 0.050000
0.076279 0.939854 -0.047177 -5.758833 33.850898 8.771696 5.609033 -1.142772 -11.439266 2.696269 0.008775 -4.093053 -11.707861 -16.206297 7.960022 0.000000 0.000000 0.000000 1.722572 0.980594 -10.036616 0.012715 -0.159567 -4.193125 -1.474508 -3.061035 12.264129 0.000000 0.000000 0.000000 -4.133233 0.015200 -3.469101 -5.608065 2.068189 1.194264 1.035536 4.225341 6.615133 2.856230 2.167562 -19.558916 0.000000 0.000000 0.000000 -24.283832 -10.645826 -4.000783 -49.340146 -12.211632 1.162413 -11.352345 -51.822557 3.574234 0.000000 0.000000 0.000000 15.615963 17.698835 13.236262 45.420752 38.156205 9.614731 -8.671241 55.697703 1.026305 0.000000 0.000000 0.000000 
0.076230 0.939778 -0.046168 -5.691158 34.607893 9.087546 5.336174 -1.156601 -11.562970 3.171630 0.013262 -4.615186 -12.176145 -16.701209 8.327522 0.000000 0.000000 0.000000 1.399659 0.947210 -10.099963 0.587842 -0.247041 -4.446385 -1.783110 -3.573672 12.375766 0.000000 0.000000 0.000000 -4.319792 0.006869 -3.555775 -5.624796 2.057251 1.117331 1.170686 3.730213 6.581949 2.870399 2.150355 -19.595096 0.000000 0.000000 0.000000 -24.401032 -10.933022 -3.845539 -49.781292 -11.628475 0.932328 -11.971870 -54.031798 3.996860 0.000000 0.000000 0.000000 15.857902 15.540679 12.072808 47.363349 33.899163 8.178581 -4.775684 62.199744 4.201649 0.000000 0.000000 0.000000 
0.076225 0.939727 -0.045144 -5.534912 35.548166 9.262465 5.216075 -1.181194 -11.741355 3.223152 0.014151 -4.735029 -12.708498 -17.345084 8.680865 0.000000 0.000000 0.000000 1.161538 0.918982 -10.226714 0.887527 -0.279653 -4.174236 -2.215375 -4.305548 12.273968 0.000000 0.000000 0.000000 -4.429407 0.004836 -3.327033 -5.139676 1.838677 1.016719 0.960277 2.776340 7.017950 2.394354 2.347559 -19.396771 0.000000 0.000000 0.000000 -25.338534 -10.988759 -3.915103 -49.126995 -11.062572 0.743846 -11.409382 -55.614177 4.005908 0.000000 0.000000 0.000000 17.149106 12.751807 10.829550 48.705639 27.648272 5.410441 12.862436 68.685386 17.515454 0.000000 0.000000 0.000000 
0.075920 0.939835 -0.044441 -5.616336 36.306776 9.536661 5.370662 -1.280137 -12.612080 3.224696 -0.005527 -4.046900 -12.967679 -17.853787 8.748429 0.000000 0.000000 0.000000 1.240574 0.931646 -10.472581 0.990064 -0.297806 -4.231777 -2.547808 -4.853323 12.436221 0.000000 0.000000 0.000000 -4.066309 0.011978 -3.356369 -5.037539 1.764378 1.091534 0.833172 1.658588 7.173239 1.428745 2.849687 -19.795780 0.000000 0.000000 0.000000 -25.852379 -10.646811 -3.967010 -48.934714 -11.172066 0.752348 -9.986210 -55.907125 3.479153 0.000000 0.000000 0.000000 17.905300 11.083606 9.931230 50.156468 22.763097 3.387765 30.025908 69.063666 30.148435 0.000000 0.000000 0.000000 
0.075008 0.940000 -0.044294 -5.564165 36.066777 9.556236 5.304262 -1.281622 -12.674390 3.356264 -0.014099 -3.866814 -12.844242 -17.686718 8.687564 0.000000 0.000000 0.000000 1.075959 0.929167 -10.780827 1.279236 -0.323478 -3.739844 -2.440739 -4.687502 12.299097 0.000000 0.000000 0.000000 -3.785441 0.026130 -3.118704 -5.008807 1.753265 1.132346 0.750201 1.404337 7.113386 1.140404 2.900776 -19.273950 0.000000 0.000000 0.000000 -26.545749 -10.513302 -4.099944 -48.005087 -10.561033 0.599111 -9.633734 -55.276857 3.394778 0.000000 0.000000 0.000000 19.163871 9.011520 8.990179 50.715337 18.798073 1.550373 44.012670 66.645667 39.206689 0.000000 0.000000 0.000000 
0.073355 0.940021 -0.044719 -5.672325 35.507281 9.632921 5.602792 -1.301655 -12.876583 3.156268 -0.014070 -3.706337 -12.504285 -17.209173 8.534828 0.000000 0.000000 0.000000 1.164824 0.960147 -11.112924 1.376570 -0.333025 -3.643497 -2.179462 -4.250885 12.294524 0.000000 0.000000 0.000000 -3.529083 0.039154 -2.974165 -4.854145 1.715783 1.049499 0.895006 1.231014 7.180093 0.397119 3.319315 -19.832193 0.000000 0.000000 0.000000 -26.571291 -10.266097 -4.062484 -48.082241 -11.124702 0.761090 -8.479769 -52.704559 2.796314 0.000000 0.000000 0.000000 20.105030 8.865138 9.039879 51.714540 17.591907 1.049114 45.794990 63.869154 38.413025 0.000000 0.000000 0.000000 
0.071337 0.939890 -0.045476 -5.837457 34.001900 9.591057 5.741204 -1.269220 -12.716935 3.316461 -0.018915 -3.685559 -11.667780 -16.129795 8.030499 0.000000 0.000000 0.000000 1.350814 1.007621 -11.340140 1.367641 -0.328699 -3.717842 -1.486692 -3.093100 12.251577 0.000000 0.000000 0.000000 -3.176294 0.051976 -2.918684 -5.182350 1.884412 1.102560 1.178248 1.699008 7.466223 0.435743 3.260055 -19.768765 0.000000 0.000000 0.000000 -26.253406 -10.742033 -3.546237 -47.891710 -11.821673 0.960508 -6.356267 -49.191103 1.785374 0.000000 0.000000 0.000000 21.412302 9.361370 9.629711 51.721852 18.890520 1.436423 43.389777 62.076271 35.258474 0.000000 0.000000 0.000000 
0.069469 0.939948 -0.046189 -5.925205 32.732244 9.633521 5.916422 -1.222600 -12.352849 3.274052 -0.000128 -4.184598 -11.097577 -15.114002 7.917027 0.000000 0.000000 0.000000 1.596903 1.069068 -11.770782 1.140321 -0.283872 -3.451057 -0.926850 -2.164175 12.173688 0.000000 0.000000 0.000000 -3.088007 0.061412 -2.874002 -5.175833 1.901392 1.240378 1.375147 1.965200 7.264574 0.214328 3.307832 -19.641462 0.000000 0.000000 0.000000 -26.130822 -10.416823 -3.493564 -47.272090 -12.010768 0.982329 -5.854679 -45.566288 1.624303 0.000000 0.000000 0.000000 21.860602 9.919645 9.947931 52.224412 19.687803 1.855865 42.710053 60.214525 33.352735 0.000000 0.000000 0.000000 
0.068104 0.939968 -0.046463 -5.955328 31.867585 9.798516 6.061097 -1.218722 -12.377640 3.191646 0.004587 -4.247014 -10.664517 -14.412734 7.788554 0.000000 0.000000 0.000000 1.752556 1.099792 -11.898148 0.990300 -0.271505 -3.782817 -0.520318 -1.485977 12.286104 0.000000 0.000000 0.000000 -3.174034 0.063023 -3.011140 -5.183804 1.934169 1.136950 1.742690 1.768746 7.471615 0.298821 3.195093 -19.661242 0.000000 0.000000 0.000000 -25.400321 -10.338540 -3.061764 -47.545758 -12.106755 0.825933 -5.385930 -42.304786 1.501190 0.000000 0.000000 0.000000 22.231448 10.310243 10.084861 52.956462 20.214814 2.185708 41.773328 58.715457 31.562865 0.000000 0.000000 0.000000 
0.067205 0.940064 -0.046467 -6.047963 31.124860 9.851629 6.163459 -1.197585 -12.216673 3.246430 0.011100 -4.474079 -10.317973 -13.818759 7.711768 0.000000 0.000000 0.000000 1.768364 1.122761 -12.155407 1.172431 -0.290428 -3.656029 -0.168399 -0.910562 12.320293 0.000000 0.000000 0.000000 -3.155686 0.063729 -3.272603 -5.076794 1.893998 1.265642 1.977584 1.673230 7.475334 0.232290 3.168611 -19.625037 0.000000 0.000000 0.000000 -25.521444 -9.701708 -3.234156 -47.042846 -11.517422 0.549602 -6.818087 -39.745215 2.064954 0.000000 0.000000 0.000000 22.940153 10.237680 10.050615 52.565555 19.758409 1.863963 40.884790 56.803135 29.577722 0.000000 0.000000 0.000000 
0.066308 0.940202 -0.046487 -6.043936 30.797228 9.878497 6.460615 -1.178127 -11.940357 2.796231 0.035736 -4.941483 -10.249535 -13.458395 7.917415 0.000000 0.000000 0.000000 1.995462 1.159726 -12.366872 0.834268 -0.235816 -3.409769 -0.043357 -0.699256 12.250000 0.000000 0.000000 0.000000 -3.318822 0.062453 -3.349081 -4.846571 1.793311 1.384948 2.136249 1.443440 7.675939 0.377406 3.036987 -19.513149 0.000000 0.000000 0.000000 -25.428667 -9.285008 -3.295130 -46.750836 -10.913264 0.262096 -7.923311 -38.022415 2.431297 0.000000 0.000000 0.000000 23.087407 9.680970 9.602272 52.582391 18.746483 1.396654 40.075412 55.431202 28.153051 0.000000 0.000000 0.000000 
0.064929 0.940060 -0.046574 -6.162571 30.335481 9.944261 6.729646 -1.168017 -11.788887 2.662573 0.049514 -5.348607 -10.039571 -13.030643 7.939852 0.000000 0.000000 0.000000 2.218976 1.199157 -12.603914 0.748032 -0.221798 -3.366310 0.166996 -0.352001 12.234992 0.000000 0.000000 0.000000 -3.201045 0.062193 -3.564021 -4.542587 1.673664 1.371918 2.101412 0.977220 8.016922 0.510191 2.849780 -19.074834 0.000000 0.000000 0.000000 -25.493231 -9.160967 -3.118218 -46.356005 -10.897413 0.175159 -8.293789 -36.245595 2.556366 0.000000 0.000000 0.000000 23.146998 9.857044 9.518345 52.552731 18.246812 1.172982 38.327719 54.063037 26.109931 0.000000 0.000000 0.000000 
0.062613 0.940074 -0.046842 -6.179049 30.370795 9.852581 6.889655 -1.165659 -11.704164 2.635538 0.053689 -5.514874 -10.101054 -12.997111 8.078474 0.000000 0.000000 0.000000 2.503829 1.231019 -12.683643 0.488538 -0.181667 -3.215530 0.133701 -0.398871 12.149936 0.000000 0.000000 0.000000 -3.360100 0.062150 -3.365649 -4.316325 1.592477 1.208696 1.929225 0.537690 8.267623 0.691672 2.715508 -19.053187 0.000000 0.000000 0.000000 -25.457610 -9.485582 -2.800040 -45.887297 -11.348332 0.309718 -7.866918 -34.662108 2.387531 0.000000 0.000000 0.000000 23.251370 9.813908 9.425852 52.667356 18.031833 1.064768 36.980510 52.578146 24.420974 0.000000 0.000000 0.000000 
0.059602 0.939938 -0.047230 -6.154587 30.355394 9.932405 7.073137 -1.179195 -11.816770 2.581238 0.057741 -5.653764 -10.120046 -12.895257 8.217687 0.000000 0.000000 0.000000 2.705267 1.264895 -12.922247 0.363719 -0.161992 -3.137604 0.130512 -0.401440 12.068541 0.000000 0.000000 0.000000 -3.735530 0.065334 -3.092661 -4.024256 1.480366 1.084617 1.797935 -0.258566 8.422562 0.728623 2.525335 -18.304549 0.000000 0.000000 0.000000 -25.193842 -9.593093 -2.375248 -45.445773 -12.687807 0.680436 -6.700751 -32.853672 2.043685 0.000000 0.000000 0.000000 22.803641 10.605229 9.576933 53.342473 18.461838 1.421990 34.872073 51.723897 22.607150 0.000000 0.000000 0.000000 
0.056513 0.940041 -0.047670 -6.252121 30.151753 9.852681 7.336927 -1.198437 -12.042805 2.592310 0.050365 -5.317035 -9.981647 -12.699514 8.163883 0.000000 0.000000 0.000000 2.856747 1.291063 -13.093063 0.539895 -0.181510 -3.017241 0.237918 -0.227719 12.103338 0.000000 0.000000 0.000000 -3.811874 0.067784 -2.886211 -4.023510 1.494335 0.988829 1.750390 -0.598976 8.592622 0.714795 2.482467 -18.233630 0.000000 0.000000 0.000000 -24.999719 -10.240021 -1.791741 -45.063685 -13.902560 1.048264 -5.143675 -30.878904 1.584852 0.000000 0.000000 0.000000 22.827973 11.290707 9.882625 53.900801 19.354999 1.919347 32.612211 50.848015 20.814645 0.000000 0.000000 0.000000 
